<?xml version="1.0" encoding="UTF-8" standalone="no"?>
<!-- Created with Inkscape (http://www.inkscape.org/) -->

<svg
   xmlns:dc="http://purl.org/dc/elements/1.1/"
   xmlns:cc="http://creativecommons.org/ns#"
   xmlns:rdf="http://www.w3.org/1999/02/22-rdf-syntax-ns#"
   xmlns:svg="http://www.w3.org/2000/svg"
   xmlns="http://www.w3.org/2000/svg"
   xmlns:xlink="http://www.w3.org/1999/xlink"
   xmlns:sodipodi="http://sodipodi.sourceforge.net/DTD/sodipodi-0.dtd"
   xmlns:inkscape="http://www.inkscape.org/namespaces/inkscape"
   version="1.0"
   width="120"
   height="90"
   id="svg2"
   sodipodi:version="0.32"
   inkscape:version="0.48.4 r9939"
   sodipodi:docname="tree_speech_brand.svg"
   inkscape:output_extension="org.inkscape.output.svg.inkscape"
   inkscape:export-filename="/home/brian/workspace/phyloseminar/webpage/images/brand.png"
   inkscape:export-xdpi="90"
   inkscape:export-ydpi="90">
  <metadata
     id="metadata8">
    <rdf:RDF>
      <cc:Work
         rdf:about="">
        <dc:format>image/svg+xml</dc:format>
        <dc:type
           rdf:resource="http://purl.org/dc/dcmitype/StillImage" />
        <dc:title></dc:title>
      </cc:Work>
    </rdf:RDF>
  </metadata>
  <sodipodi:namedview
     inkscape:window-height="1056"
     inkscape:window-width="1920"
     inkscape:pageshadow="2"
     inkscape:pageopacity="0.0"
     guidetolerance="10000"
     gridtolerance="10000"
     objecttolerance="10000"
     borderopacity="1.0"
     bordercolor="#666666"
     pagecolor="#ffffff"
     id="base"
     showgrid="true"
     inkscape:zoom="3.9392423"
     inkscape:cx="-64.491018"
     inkscape:cy="22.375702"
     inkscape:window-x="0"
     inkscape:window-y="24"
     inkscape:current-layer="layer3"
     fit-margin-top="0"
     fit-margin-left="0"
     fit-margin-right="0"
     fit-margin-bottom="0"
     inkscape:window-maximized="1">
    <inkscape:grid
       type="xygrid"
       id="grid3040"
       empspacing="5"
       visible="true"
       enabled="true"
       snapvisiblegridlinesonly="true" />
  </sodipodi:namedview>
  <defs
     id="defs4">
    <linearGradient
       inkscape:collect="always"
       xlink:href="#linearGradient2250"
       id="linearGradient4478"
       gradientUnits="userSpaceOnUse"
       gradientTransform="matrix(0,-0.260577,-0.8195817,0,-1711.2073,798.46048)"
       x1="134.1788"
       y1="480.9187"
       x2="578.17694"
       y2="480.9187" />
    <linearGradient
       inkscape:collect="always"
       xlink:href="#linearGradient2250"
       id="linearGradient4476"
       gradientUnits="userSpaceOnUse"
       gradientTransform="matrix(0,-0.2716854,-0.7700626,0,-1429.7741,762.91635)"
       x1="421.45929"
       y1="916.64789"
       x2="0"
       y2="916.64789" />
    <linearGradient
       inkscape:collect="always"
       xlink:href="#linearGradient2250"
       id="linearGradient4474"
       gradientUnits="userSpaceOnUse"
       gradientTransform="matrix(0,-0.260577,-0.8195817,0,-1711.2073,798.46048)"
       x1="134.1788"
       y1="480.9187"
       x2="578.17694"
       y2="480.9187" />
    <linearGradient
       inkscape:collect="always"
       xlink:href="#linearGradient2250"
       id="linearGradient4472"
       gradientUnits="userSpaceOnUse"
       gradientTransform="matrix(0,-0.2716854,-0.7700626,0,-1429.7741,762.91635)"
       x1="421.45929"
       y1="916.64789"
       x2="0"
       y2="916.64789" />
    <linearGradient
       inkscape:collect="always"
       xlink:href="#linearGradient2250"
       id="linearGradient4470"
       gradientUnits="userSpaceOnUse"
       gradientTransform="matrix(0,-0.260577,1,0,-694.73162,712.8184)"
       x1="134.1788"
       y1="480.9187"
       x2="578.17694"
       y2="480.9187" />
    <linearGradient
       inkscape:collect="always"
       xlink:href="#linearGradient2250"
       id="linearGradient4468"
       gradientUnits="userSpaceOnUse"
       gradientTransform="matrix(0,-0.2716854,0.93958,0,-1038.1179,677.27427)"
       x1="421.45929"
       y1="916.64789"
       x2="0"
       y2="916.64789" />
    <linearGradient
       inkscape:collect="always"
       xlink:href="#linearGradient2250"
       id="linearGradient4466"
       gradientUnits="userSpaceOnUse"
       gradientTransform="matrix(0,-0.260577,1,0,-694.73162,712.8184)"
       x1="134.1788"
       y1="480.9187"
       x2="578.17694"
       y2="480.9187" />
    <linearGradient
       inkscape:collect="always"
       xlink:href="#linearGradient2250"
       id="linearGradient4464"
       gradientUnits="userSpaceOnUse"
       gradientTransform="matrix(0,-0.2716854,0.93958,0,-1038.1179,677.27427)"
       x1="421.45929"
       y1="916.64789"
       x2="0"
       y2="916.64789" />
    <linearGradient
       inkscape:collect="always"
       xlink:href="#linearGradient2250"
       id="linearGradient4462"
       gradientUnits="userSpaceOnUse"
       gradientTransform="matrix(0,-0.260577,0.8195817,0,-678.74735,822.61716)"
       x1="134.1788"
       y1="480.9187"
       x2="578.17694"
       y2="480.9187" />
    <linearGradient
       inkscape:collect="always"
       xlink:href="#linearGradient2250"
       id="linearGradient4460"
       gradientUnits="userSpaceOnUse"
       gradientTransform="matrix(0,-0.2716854,0.7700626,0,-960.1805,787.07303)"
       x1="421.45929"
       y1="916.64789"
       x2="0"
       y2="916.64789" />
    <linearGradient
       inkscape:collect="always"
       xlink:href="#linearGradient2250"
       id="linearGradient4458"
       gradientUnits="userSpaceOnUse"
       gradientTransform="matrix(0,-0.260577,0.8195817,0,-678.74735,822.61715)"
       x1="134.1788"
       y1="480.9187"
       x2="578.17694"
       y2="480.9187" />
    <linearGradient
       inkscape:collect="always"
       xlink:href="#linearGradient2250"
       id="linearGradient4456"
       gradientUnits="userSpaceOnUse"
       gradientTransform="matrix(0,-0.2716854,0.7700626,0,-960.1805,787.07302)"
       x1="421.45929"
       y1="916.64789"
       x2="0"
       y2="916.64789" />
    <linearGradient
       inkscape:collect="always"
       xlink:href="#linearGradient2250"
       id="linearGradient4454"
       gradientUnits="userSpaceOnUse"
       gradientTransform="matrix(0,-0.260577,0.8195817,0,-678.74735,822.61716)"
       x1="134.1788"
       y1="480.9187"
       x2="578.17694"
       y2="480.9187" />
    <linearGradient
       inkscape:collect="always"
       xlink:href="#linearGradient2250"
       id="linearGradient4452"
       gradientUnits="userSpaceOnUse"
       gradientTransform="matrix(0,-0.2716854,0.7700626,0,-960.1805,787.07303)"
       x1="421.45929"
       y1="916.64789"
       x2="0"
       y2="916.64789" />
    <linearGradient
       inkscape:collect="always"
       xlink:href="#linearGradient2250"
       id="linearGradient4450"
       gradientUnits="userSpaceOnUse"
       gradientTransform="matrix(0,-0.260577,0.8195817,0,-678.74735,822.61715)"
       x1="134.1788"
       y1="480.9187"
       x2="578.17694"
       y2="480.9187" />
    <linearGradient
       inkscape:collect="always"
       xlink:href="#linearGradient2250"
       id="linearGradient4448"
       gradientUnits="userSpaceOnUse"
       gradientTransform="matrix(0,-0.2716854,0.7700626,0,-960.1805,787.07302)"
       x1="421.45929"
       y1="916.64789"
       x2="0"
       y2="916.64789" />
    <linearGradient
       inkscape:collect="always"
       xlink:href="#linearGradient2250"
       id="linearGradient4446"
       gradientUnits="userSpaceOnUse"
       gradientTransform="matrix(0,-0.260577,1,0,-694.73162,712.8184)"
       x1="134.1788"
       y1="480.9187"
       x2="578.17694"
       y2="480.9187" />
    <linearGradient
       inkscape:collect="always"
       xlink:href="#linearGradient2250"
       id="linearGradient4444"
       gradientUnits="userSpaceOnUse"
       gradientTransform="matrix(0,-0.2716854,0.93958,0,-1038.1179,677.27427)"
       x1="421.45929"
       y1="916.64789"
       x2="0"
       y2="916.64789" />
    <linearGradient
       inkscape:collect="always"
       xlink:href="#linearGradient2250"
       id="linearGradient4442"
       gradientUnits="userSpaceOnUse"
       gradientTransform="matrix(0,-0.260577,1,0,-694.73162,712.8184)"
       x1="134.1788"
       y1="480.9187"
       x2="578.17694"
       y2="480.9187" />
    <linearGradient
       inkscape:collect="always"
       xlink:href="#linearGradient2250"
       id="linearGradient4440"
       gradientUnits="userSpaceOnUse"
       gradientTransform="matrix(0,-0.2716854,0.93958,0,-1038.1179,677.27427)"
       x1="421.45929"
       y1="916.64789"
       x2="0"
       y2="916.64789" />
    <linearGradient
       inkscape:collect="always"
       xlink:href="#linearGradient2250"
       id="linearGradient4438"
       gradientUnits="userSpaceOnUse"
       gradientTransform="matrix(-0.260577,0,0,-1,-581.24959,1481.4784)"
       x1="134.1788"
       y1="480.9187"
       x2="578.17694"
       y2="480.9187" />
    <linearGradient
       inkscape:collect="always"
       xlink:href="#linearGradient2250"
       id="linearGradient4436"
       gradientUnits="userSpaceOnUse"
       gradientTransform="matrix(-0.2716854,0,0,-0.93958,-616.79372,1824.8647)"
       x1="421.45929"
       y1="916.64789"
       x2="0"
       y2="916.64789" />
    <linearGradient
       inkscape:collect="always"
       xlink:href="#linearGradient2250"
       id="linearGradient4434"
       gradientUnits="userSpaceOnUse"
       gradientTransform="matrix(-0.260577,0,0,-1,-581.24959,1481.4784)"
       x1="134.1788"
       y1="480.9187"
       x2="578.17694"
       y2="480.9187" />
    <linearGradient
       inkscape:collect="always"
       xlink:href="#linearGradient2250"
       id="linearGradient4432"
       gradientUnits="userSpaceOnUse"
       gradientTransform="matrix(-0.2716854,0,0,-0.93958,-616.79372,1824.8648)"
       x1="421.45929"
       y1="916.64789"
       x2="0"
       y2="916.64789" />
    <linearGradient
       inkscape:collect="always"
       xlink:href="#linearGradient2250"
       id="linearGradient4430"
       gradientUnits="userSpaceOnUse"
       gradientTransform="matrix(-0.260577,0,0,-1,-581.24959,1481.4784)"
       x1="134.1788"
       y1="480.9187"
       x2="578.17694"
       y2="480.9187" />
    <linearGradient
       inkscape:collect="always"
       xlink:href="#linearGradient2250"
       id="linearGradient4428"
       gradientUnits="userSpaceOnUse"
       gradientTransform="matrix(-0.2716854,0,0,-0.93958,-616.79372,1824.8647)"
       x1="421.45929"
       y1="916.64789"
       x2="0"
       y2="916.64789" />
    <linearGradient
       inkscape:collect="always"
       xlink:href="#linearGradient2250"
       id="linearGradient4426"
       gradientUnits="userSpaceOnUse"
       gradientTransform="matrix(-0.260577,0,0,-1,-581.24959,1481.4784)"
       x1="134.1788"
       y1="480.9187"
       x2="578.17694"
       y2="480.9187" />
    <linearGradient
       id="linearGradient2250">
      <stop
         offset="0"
         style="stop-color: rgb(255, 255, 255); stop-opacity: 1;"
         id="stop2252" />
      <stop
         offset="0.01531515"
         style="stop-color:   rgb(81,  5,    5   );  stop-opacity:  0.686636;"
         id="stop3243" />
      <stop
         offset="0.13956632"
         style="stop-color:   rgb(77,  11,   10  );  stop-opacity:  0.861751;"
         id="stop3241" />
      <stop
         offset="0.34356076"
         style="stop-color:   rgb(127, 0,    9   );  stop-opacity:  0.772549;"
         id="stop2264" />
      <stop
         offset="0.42254606"
         style="stop-color:   rgb(140, 0,    6   );  stop-opacity:  0.556863;"
         id="stop3247" />
      <stop
         offset="0.45062295"
         style="stop-color:   rgb(113, 0,    4   );  stop-opacity:  0.43318;"
         id="stop3245" />
      <stop
         offset="0.58819962"
         style="stop-color:   rgb(133, 0,    2   );  stop-opacity:  0.603687;"
         id="stop3249" />
      <stop
         offset="0.73600483"
         style="stop-color:   rgb(125, 0,    24  );  stop-opacity:  1;"
         id="stop3251" />
      <stop
         offset="0.85979915"
         style="stop-color:   rgb(123, 0,    0   )   ;              stop-opacity:  0.40553;"
         id="stop3253" />
      <stop
         offset="1"
         style="stop-color:   rgb(140, 0,    0   );  stop-opacity:  1;"
         id="stop2254" />
    </linearGradient>
    <linearGradient
       inkscape:collect="always"
       xlink:href="#linearGradient2250"
       id="linearGradient4424"
       gradientUnits="userSpaceOnUse"
       gradientTransform="matrix(-0.2716854,0,0,-0.93958,-616.79372,1824.8648)"
       x1="421.45929"
       y1="916.64789"
       x2="0"
       y2="916.64789" />
    <inkscape:perspective
       sodipodi:type="inkscape:persp3d"
       inkscape:vp_x="0 : 19.355469 : 1"
       inkscape:vp_y="0 : 1000 : 0"
       inkscape:vp_z="273.04688 : 19.355469 : 1"
       inkscape:persp3d-origin="136.52344 : 12.903646 : 1"
       id="perspective10" />
    <clipPath
       clipPathUnits="userSpaceOnUse"
       id="clipPath3125">
      <rect
         style="fill:#4d4d4d;fill-opacity:1"
         id="rect3127"
         width="120"
         height="90"
         x="0"
         y="0"
         rx="0" />
    </clipPath>
    <clipPath
       clipPathUnits="userSpaceOnUse"
       id="clipPath3917">
      <rect
         style="fill:#000000;fill-opacity:1"
         id="rect3919"
         width="120"
         height="90"
         x="0"
         y="0" />
    </clipPath>
    <filter
       inkscape:collect="always"
       id="filter4062">
      <feGaussianBlur
         inkscape:collect="always"
         stdDeviation="4"
         id="feGaussianBlur4064" />
    </filter>
    <clipPath
       clipPathUnits="userSpaceOnUse"
       id="clipPath3166">
      <rect
         style="fill:#000000;fill-opacity:1"
         id="rect3168"
         width="120"
         height="90"
         x="-2.5385592"
         y="-2.5385599" />
    </clipPath>
  </defs>
  <g
     inkscape:groupmode="layer"
     id="layer3"
     inkscape:label="Shadow"
     transform="translate(0,15)"
     style="display:inline">
    <rect
       ry="0"
       rx="0"
       y="-20"
       x="10"
       height="100"
       width="100"
       id="rect3902"
       style="fill:#808080;fill-opacity:1;filter:url(#filter4062)"
       clip-path="url(#clipPath3166)"
       inkscape:export-xdpi="266.78525"
       inkscape:export-ydpi="266.78525"
       transform="translate(2.5385591,-12.46144)" />
  </g>
  <g
     inkscape:groupmode="layer"
     id="layer2"
     inkscape:label="Background"
     transform="translate(0,15)"
     style="display:inline"
     sodipodi:insensitive="true">
    <rect
       style="fill:#f8f8f8;fill-opacity:1"
       id="rect3132"
       width="100"
       height="100"
       x="10"
       y="-20"
       transform="translate(0,-15)"
       rx="5"
       ry="5"
       clip-path="url(#clipPath3917)" />
  </g>
  <g
     inkscape:groupmode="layer"
     id="layer1"
     inkscape:label="Foreground"
     style="display:inline"
     transform="translate(0,15)"
     sodipodi:insensitive="true">
    <g
       id="g3095"
       transform="translate(8,-8.992288)">
      <g
         id="g3"
         transform="matrix(0.7873055,0,0,0.7873055,16.262778,12.092864)">
        <path
           inkscape:connector-curvature="0"
           id="path5"
           d="m 45.673,0 c 22.108,0 40.03,12.475 40.03,27.862 0,15.387 -17.922,27.862 -40.03,27.862 -6.931,0 -13.449,-1.227 -19.134,-3.384 C 15.319,56.564 0,64.542 0,64.542 c 0,0 9.989,-5.655 14.107,-12.521 1.052,-1.755 1.668,-3.595 2.021,-5.362 C 9.618,41.704 5.643,35.106 5.643,27.862 5.643,12.475 23.565,0 45.673,0 m 0,2.22 c -20.849,0 -37.811,11.503 -37.811,25.643 0,6.266 3.413,12.314 9.61,17.03 l 1.104,0.841 -0.271,1.36 c -0.445,2.23 -1.217,4.272 -2.294,6.069 -0.341,0.567 -0.717,1.127 -1.12,1.674 3.625,-1.646 7.421,-3.276 10.866,-4.573 l 0.785,-0.296 0.785,0.298 c 5.584,2.119 11.928,3.239 18.346,3.239 20.849,0 37.811,-11.503 37.811,-25.643 C 83.484,13.722 66.522,2.22 45.673,2.22 l 0,0 z" />
      </g>
      <path
         inkscape:connector-curvature="0"
         id="path3798"
         sodipodi:nodetypes="ccccsccccsc"
         d="m 51.688878,47.575158 0,-13.736956 0,-0.03949 -9.7e-4,0 c -0.0747,-0.701256 -0.35003,-1.683329 -1.30416,-1.747078 -0.87095,-0.05819 -1.27772,1.148833 -1.30417,1.747078 l -9.7e-4,0 c -0.002,-0.0013 0,0.03949 0,0.03949 l 0,13.717544 c 0.0466,0.444545 0.70054,1.393717 1.35765,1.393717 0.66514,-3e-6 1.16156,-0.885066 1.25262,-1.374305 z"
         style="fill:#860005;fill-opacity:1;fill-rule:evenodd;stroke:none" />
      <path
         inkscape:connector-curvature="0"
         id="path3145"
         sodipodi:nodetypes="ccccsccccsc"
         d="m 36.228888,40.33118 0,-16.209389 0,-0.0466 -9.7e-4,0 c -0.0747,-0.827471 -0.35003,-1.986302 -1.30416,-2.061524 -0.87095,-0.06867 -1.27772,1.355604 -1.30417,2.061524 l -9.7e-4,0 c -0.002,-0.0015 0,0.0466 0,0.0466 l 0,16.186483 c 0.0466,0.524556 0.70054,1.644564 1.35765,1.644564 0.66514,-3e-6 1.16156,-1.044363 1.25262,-1.621658 z"
         style="fill:#860005;fill-opacity:1;fill-rule:evenodd;stroke:none" />
      <path
         inkscape:connector-curvature="0"
         id="path3116"
         sodipodi:nodetypes="cccscccccc"
         d="m 60.105968,48.966789 -0.002,-0.04315 0,-9.68e-4 c 0.476,-0.07475 1.1426,-0.35003 1.18587,-1.304167 0.0395,-0.870945 -0.77979,-1.277718 -1.18587,-1.304167 l 0,-9.67e-4 c 8.6e-4,-0.0019 -0.0268,0 -0.0268,0 l -8.70994,-0.09764 c 0.0174,1.906244 -0.24429,2.354114 -0.69276,2.727277 l 9.43199,0.02379 z"
         style="fill:#860005;fill-opacity:1;fill-rule:evenodd;stroke:none" />
      <path
         inkscape:connector-curvature="0"
         id="path2965"
         sodipodi:nodetypes="cccscccccc"
         d="m 62.050708,34.726341 -0.0484,-0.0545 0,-9.69e-4 c 0.57474,-0.07475 1.37963,-0.35003 1.43188,-1.304167 0.0477,-0.870944 -0.94156,-1.277718 -1.43188,-1.304166 l 0,-9.68e-4 c 10e-4,-0.0019 -0.0324,0 -0.0324,0 l -11.41289,0.01135 c 0.43601,0.100879 1.14471,0.519199 1.12678,2.640982 l 10.36687,0.01243 z"
         style="fill:#860005;fill-opacity:1;fill-rule:evenodd;stroke:none" />
      <path
         inkscape:connector-curvature="0"
         id="path3585"
         sodipodi:nodetypes="cccscccccc"
         d="m 50.360108,24.635902 -0.0656,-0.0545 0,-9.69e-4 c 0.77943,-0.07475 1.87099,-0.35003 1.94184,-1.304167 0.0647,-0.870944 -1.2769,-1.277718 -1.94184,-1.304166 l 0,-9.68e-4 c 10e-4,-0.0019 -0.0439,0 -0.0439,0 l -15.4776,0.01135 c 0.5913,0.100879 1.55241,0.519199 1.52809,2.640982 l 14.05903,0.01244 z"
         style="fill:#860005;fill-opacity:1;fill-rule:evenodd;stroke:none" />
      <path
         inkscape:connector-curvature="0"
         id="path3601"
         sodipodi:nodetypes="cccccc"
         d="m 49.055338,41.973536 0,-9.68e-4 c 0.0259,-2.568085 0.0254,-0.01207 0,-2.608334 l -12.87138,-0.09861 c 0.0257,1.906244 -0.35991,2.354114 -1.02062,2.727277 l 13.892,-0.01936 z"
         style="fill:#860005;fill-opacity:1;fill-rule:evenodd;stroke:none" />
      <path
         inkscape:connector-curvature="0"
         id="path3647"
         sodipodi:nodetypes="cccscccccc"
         d="m 29.568888,33.662535 0.0186,-0.0545 0,-9.69e-4 c -0.22083,-0.07475 -0.5301,-0.35003 -0.55018,-1.304167 -0.0183,-0.870944 0.36178,-1.277718 0.55018,-1.304166 l 0,-9.68e-4 c -4e-4,-0.0019 0.0124,0 0.0124,0 l 4.01,-0.05647 c -7.7e-4,2.705011 -0.002,0.600578 0.005,2.722361 l -4.04584,-0.0011 z"
         style="fill:#860005;fill-opacity:1;fill-rule:evenodd;stroke:none" />
      <text
         sodipodi:linespacing="100%"
         id="text4393"
         y="42.746269"
         x="66.252731"
         style="font-size:27.36063194px;font-style:normal;font-variant:normal;font-weight:normal;font-stretch:normal;text-align:start;line-height:100%;writing-mode:lr-tb;text-anchor:start;fill:#000000;fill-opacity:1;stroke:none;font-family:Bitstream Charter;-inkscape-font-specification:Bitstream Charter"
         xml:space="preserve"><tspan
           style="font-size:27.36063194px;font-style:normal;font-variant:normal;font-weight:normal;font-stretch:normal;text-align:start;line-height:100%;writing-mode:lr-tb;text-anchor:start;font-family:Bitstream Charter;-inkscape-font-specification:Bitstream Charter"
           y="42.746269"
           x="66.252731"
           id="tspan4395"
           sodipodi:role="line">!</tspan></text>
      <path
         inkscape:connector-curvature="0"
         id="path3093"
         d="M 29.310188,53.271631 C 29.767437,52.399001 30.349067,50.8633 30.6027,49.85896 l 0.461152,-1.826072 -0.750625,-0.560458 c -0.412844,-0.308253 -1.665609,-1.485636 -2.783923,-2.616407 -3.420931,-3.459038 -5.141776,-7.546501 -4.87337,-11.575546 0.588358,-8.831853 9.473297,-16.274451 22.332028,-18.706746 3.60723,-0.682327 11.619628,-0.609822 15.106766,0.136701 11.058251,2.367342 18.727576,7.87688 21.009071,15.09263 1.769066,5.595077 -0.194931,11.773493 -5.143561,16.180797 -8.672568,7.723886 -23.736062,10.217899 -36.540307,6.049854 l -2.327756,-0.757732 -3.257074,1.318086 c -1.791391,0.724946 -3.680906,1.530954 -4.198921,1.791126 -0.518016,0.260169 -0.990336,0.473038 -1.0496,0.473038 -0.05926,0 0.26636,-0.71397 0.723608,-1.5866 z m 31.647097,-4.672216 c 0.577326,-0.522473 0.595279,-1.299013 0.04411,-1.908049 -0.376252,-0.415753 -0.879971,-0.464237 -4.823262,-0.464237 l -4.403134,0 0,-5.711758 0,-5.711759 5.37445,0 c 4.644738,0 5.43748,-0.05704 5.838686,-0.420128 0.620632,-0.561665 0.605274,-1.771231 -0.02679,-2.109499 -0.300928,-0.161052 -2.948861,-0.262788 -6.839714,-0.262788 -7.71342,0 -7.13905,-0.331326 -7.13905,4.11818 l 0,2.989786 -6.346398,0 -6.346398,0 0,-7.234894 0,-7.234894 7.432265,0 c 6.395637,0 7.512979,-0.05653 8.010956,-0.40533 0.768419,-0.538221 0.656875,-1.62284 -0.211866,-2.06014 -0.470111,-0.236641 -2.746868,-0.32043 -8.782149,-0.323202 -7.958921,-0.0037 -8.158702,0.0086 -8.631101,0.529831 -0.422578,0.466254 -0.493807,1.023467 -0.564546,4.416394 l -0.08095,3.882819 -2.024081,0.09192 c -2.213845,0.100536 -2.499745,0.285665 -2.506459,1.623009 -0.0059,1.175945 0.381992,1.383515 2.585443,1.383515 l 1.980076,0 0,3.565522 c 0,3.447141 0.02069,3.586208 0.623101,4.188621 l 0.623101,0.623102 7.119505,0 7.119505,0 0,2.862858 c 0,4.251485 -0.401014,3.991252 6.150411,3.991252 4.631348,0 5.42317,-0.05712 5.824293,-0.420129 z m 11.10776,-6.087432 c 0.628728,-0.799296 0.661094,-1.310181 0.130959,-2.067055 -0.479483,-0.684558 -1.75996,-0.760141 -2.440713,-0.144068 -0.666948,0.603581 -0.61131,1.986626 0.09996,2.48482 0.828941,0.580615 1.614306,0.483342 2.209793,-0.273697 z m -0.382733,-4.979419 c 0.316299,-2.014173 0.851783,-11.663865 0.682687,-12.302396 -0.400359,-1.511825 -2.622756,-1.582347 -2.996038,-0.09507 -0.142888,0.569314 0.07195,4.59596 0.600504,11.255116 0.154798,1.950298 0.162351,1.967383 0.86972,1.967383 0.609237,0 0.732512,-0.120628 0.843127,-0.825031 z"
         style="fill:#ffffff;fill-opacity:1" />
    </g>
  </g>
</svg>
