<?xml version="1.0" encoding="UTF-8" standalone="no"?>
<!-- Created with Inkscape (http://www.inkscape.org/) -->
<svg
   xmlns:dc="http://purl.org/dc/elements/1.1/"
   xmlns:cc="http://creativecommons.org/ns#"
   xmlns:rdf="http://www.w3.org/1999/02/22-rdf-syntax-ns#"
   xmlns:svg="http://www.w3.org/2000/svg"
   xmlns="http://www.w3.org/2000/svg"
   xmlns:xlink="http://www.w3.org/1999/xlink"
   xmlns:sodipodi="http://sodipodi.sourceforge.net/DTD/sodipodi-0.dtd"
   xmlns:inkscape="http://www.inkscape.org/namespaces/inkscape"
   version="1.0"
   width="1800"
   height="1800"
   viewBox="0 0 36000 36000"
   id="svg122568"
   sodipodi:version="0.32"
   inkscape:version="0.46"
   sodipodi:docname="favicon.svg"
   inkscape:output_extension="org.inkscape.output.svg.inkscape"
   inkscape:export-filename="/home/matsen/phylosem/webpage/favicon.png"
   inkscape:export-xdpi="3.2"
   inkscape:export-ydpi="3.2">
  <metadata
     id="metadata3010">
    <rdf:RDF>
      <cc:Work
         rdf:about="">
        <dc:format>image/svg+xml</dc:format>
        <dc:type
           rdf:resource="http://purl.org/dc/dcmitype/StillImage" />
      </cc:Work>
    </rdf:RDF>
  </metadata>
  <sodipodi:namedview
     inkscape:window-height="798"
     inkscape:window-width="1278"
     inkscape:pageshadow="2"
     inkscape:pageopacity="0.0"
     guidetolerance="10.0"
     gridtolerance="10.0"
     objecttolerance="10.0"
     borderopacity="1.0"
     bordercolor="#666666"
     pagecolor="#ffffff"
     id="base"
     showgrid="false"
     inkscape:zoom="0.12888889"
     inkscape:cx="900"
     inkscape:cy="900"
     inkscape:window-x="0"
     inkscape:window-y="0"
     inkscape:current-layer="svg122568" />
  <defs
     id="defs123965">
    <linearGradient
       inkscape:collect="always"
       xlink:href="#linearGradient2250"
       id="linearGradient3563"
       gradientUnits="userSpaceOnUse"
       gradientTransform="matrix(0,-0.260577,1,0,-694.73162,712.8184)"
       x1="134.1788"
       y1="480.9187"
       x2="578.17694"
       y2="480.9187" />
    <linearGradient
       inkscape:collect="always"
       xlink:href="#linearGradient2250"
       id="linearGradient3561"
       gradientUnits="userSpaceOnUse"
       gradientTransform="matrix(0,-0.2716854,0.93958,0,-1038.1179,677.27427)"
       x1="421.45929"
       y1="916.64789"
       x2="0"
       y2="916.64789" />
    <linearGradient
       inkscape:collect="always"
       xlink:href="#linearGradient2250"
       id="linearGradient3559"
       gradientUnits="userSpaceOnUse"
       gradientTransform="matrix(0,-0.260577,1,0,-694.73162,712.8184)"
       x1="134.1788"
       y1="480.9187"
       x2="578.17694"
       y2="480.9187" />
    <linearGradient
       inkscape:collect="always"
       xlink:href="#linearGradient2250"
       id="linearGradient3557"
       gradientUnits="userSpaceOnUse"
       gradientTransform="matrix(0,-0.2716854,0.93958,0,-1038.1179,677.27427)"
       x1="421.45929"
       y1="916.64789"
       x2="0"
       y2="916.64789" />
    <linearGradient
       inkscape:collect="always"
       xlink:href="#linearGradient2250"
       id="linearGradient3581"
       gradientUnits="userSpaceOnUse"
       gradientTransform="matrix(0,-0.260577,0.8195817,0,-678.74735,822.61716)"
       x1="134.1788"
       y1="480.9187"
       x2="578.17694"
       y2="480.9187" />
    <linearGradient
       inkscape:collect="always"
       xlink:href="#linearGradient2250"
       id="linearGradient3579"
       gradientUnits="userSpaceOnUse"
       gradientTransform="matrix(0,-0.2716854,0.7700626,0,-960.1805,787.07303)"
       x1="421.45929"
       y1="916.64789"
       x2="0"
       y2="916.64789" />
    <linearGradient
       inkscape:collect="always"
       xlink:href="#linearGradient2250"
       id="linearGradient3577"
       gradientUnits="userSpaceOnUse"
       gradientTransform="matrix(0,-0.260577,0.8195817,0,-678.74735,822.61715)"
       x1="134.1788"
       y1="480.9187"
       x2="578.17694"
       y2="480.9187" />
    <linearGradient
       inkscape:collect="always"
       xlink:href="#linearGradient2250"
       id="linearGradient3575"
       gradientUnits="userSpaceOnUse"
       gradientTransform="matrix(0,-0.2716854,0.7700626,0,-960.1805,787.07302)"
       x1="421.45929"
       y1="916.64789"
       x2="0"
       y2="916.64789" />
    <linearGradient
       inkscape:collect="always"
       xlink:href="#linearGradient2250"
       id="linearGradient3595"
       gradientUnits="userSpaceOnUse"
       gradientTransform="matrix(0,-0.260577,0.8195817,0,-678.74735,822.61716)"
       x1="134.1788"
       y1="480.9187"
       x2="578.17694"
       y2="480.9187" />
    <linearGradient
       inkscape:collect="always"
       xlink:href="#linearGradient2250"
       id="linearGradient3593"
       gradientUnits="userSpaceOnUse"
       gradientTransform="matrix(0,-0.2716854,0.7700626,0,-960.1805,787.07303)"
       x1="421.45929"
       y1="916.64789"
       x2="0"
       y2="916.64789" />
    <linearGradient
       inkscape:collect="always"
       xlink:href="#linearGradient2250"
       id="linearGradient3591"
       gradientUnits="userSpaceOnUse"
       gradientTransform="matrix(0,-0.260577,0.8195817,0,-678.74735,822.61715)"
       x1="134.1788"
       y1="480.9187"
       x2="578.17694"
       y2="480.9187" />
    <linearGradient
       inkscape:collect="always"
       xlink:href="#linearGradient2250"
       id="linearGradient3589"
       gradientUnits="userSpaceOnUse"
       gradientTransform="matrix(0,-0.2716854,0.7700626,0,-960.1805,787.07302)"
       x1="421.45929"
       y1="916.64789"
       x2="0"
       y2="916.64789" />
    <linearGradient
       inkscape:collect="always"
       xlink:href="#linearGradient2250"
       id="linearGradient3643"
       gradientUnits="userSpaceOnUse"
       gradientTransform="matrix(0,-0.260577,1,0,-694.73162,712.8184)"
       x1="134.1788"
       y1="480.9187"
       x2="578.17694"
       y2="480.9187" />
    <linearGradient
       inkscape:collect="always"
       xlink:href="#linearGradient2250"
       id="linearGradient3641"
       gradientUnits="userSpaceOnUse"
       gradientTransform="matrix(0,-0.2716854,0.93958,0,-1038.1179,677.27427)"
       x1="421.45929"
       y1="916.64789"
       x2="0"
       y2="916.64789" />
    <linearGradient
       inkscape:collect="always"
       xlink:href="#linearGradient2250"
       id="linearGradient3639"
       gradientUnits="userSpaceOnUse"
       gradientTransform="matrix(0,-0.260577,1,0,-694.73162,712.8184)"
       x1="134.1788"
       y1="480.9187"
       x2="578.17694"
       y2="480.9187" />
    <linearGradient
       inkscape:collect="always"
       xlink:href="#linearGradient2250"
       id="linearGradient3637"
       gradientUnits="userSpaceOnUse"
       gradientTransform="matrix(0,-0.2716854,0.93958,0,-1038.1179,677.27427)"
       x1="421.45929"
       y1="916.64789"
       x2="0"
       y2="916.64789" />
    <linearGradient
       inkscape:collect="always"
       xlink:href="#linearGradient2250"
       id="linearGradient3685"
       gradientUnits="userSpaceOnUse"
       gradientTransform="matrix(0,-0.260577,-0.8195817,0,-1711.2073,798.46048)"
       x1="134.1788"
       y1="480.9187"
       x2="578.17694"
       y2="480.9187" />
    <linearGradient
       inkscape:collect="always"
       xlink:href="#linearGradient2250"
       id="linearGradient3683"
       gradientUnits="userSpaceOnUse"
       gradientTransform="matrix(0,-0.2716854,-0.7700626,0,-1429.7741,762.91635)"
       x1="421.45929"
       y1="916.64789"
       x2="0"
       y2="916.64789" />
    <linearGradient
       inkscape:collect="always"
       xlink:href="#linearGradient2250"
       id="linearGradient3681"
       gradientUnits="userSpaceOnUse"
       gradientTransform="matrix(0,-0.260577,-0.8195817,0,-1711.2073,798.46048)"
       x1="134.1788"
       y1="480.9187"
       x2="578.17694"
       y2="480.9187" />
    <linearGradient
       inkscape:collect="always"
       xlink:href="#linearGradient2250"
       id="linearGradient3679"
       gradientUnits="userSpaceOnUse"
       gradientTransform="matrix(0,-0.2716854,-0.7700626,0,-1429.7741,762.91635)"
       x1="421.45929"
       y1="916.64789"
       x2="0"
       y2="916.64789" />
    <linearGradient
       inkscape:collect="always"
       xlink:href="#linearGradient2250"
       id="linearGradient3173"
       gradientUnits="userSpaceOnUse"
       gradientTransform="matrix(-0.260577,0,0,-1,-581.24959,1481.4784)"
       x1="134.1788"
       y1="480.9187"
       x2="578.17694"
       y2="480.9187" />
    <linearGradient
       inkscape:collect="always"
       xlink:href="#linearGradient2250"
       id="linearGradient3171"
       gradientUnits="userSpaceOnUse"
       gradientTransform="matrix(-0.2716854,0,0,-0.93958,-616.79372,1824.8647)"
       x1="421.45929"
       y1="916.64789"
       x2="0"
       y2="916.64789" />
    <linearGradient
       inkscape:collect="always"
       xlink:href="#linearGradient2250"
       id="linearGradient3169"
       gradientUnits="userSpaceOnUse"
       gradientTransform="matrix(-0.260577,0,0,-1,-581.24959,1481.4784)"
       x1="134.1788"
       y1="480.9187"
       x2="578.17694"
       y2="480.9187" />
    <linearGradient
       inkscape:collect="always"
       xlink:href="#linearGradient2250"
       id="linearGradient3167"
       gradientUnits="userSpaceOnUse"
       gradientTransform="matrix(-0.2716854,0,0,-0.93958,-616.79372,1824.8648)"
       x1="421.45929"
       y1="916.64789"
       x2="0"
       y2="916.64789" />
    <linearGradient
       inkscape:collect="always"
       xlink:href="#linearGradient2250"
       id="linearGradient3170"
       gradientUnits="userSpaceOnUse"
       gradientTransform="matrix(-0.260577,0,0,-1,-581.24959,1481.4784)"
       x1="134.1788"
       y1="480.9187"
       x2="578.17694"
       y2="480.9187" />
    <linearGradient
       inkscape:collect="always"
       xlink:href="#linearGradient2250"
       id="linearGradient3168"
       gradientUnits="userSpaceOnUse"
       gradientTransform="matrix(-0.2716854,0,0,-0.93958,-616.79372,1824.8647)"
       x1="421.45929"
       y1="916.64789"
       x2="0"
       y2="916.64789" />
    <linearGradient
       inkscape:collect="always"
       xlink:href="#linearGradient2250"
       id="linearGradient3111"
       gradientUnits="userSpaceOnUse"
       gradientTransform="matrix(-0.260577,0,0,-1,-581.24959,1481.4784)"
       x1="134.1788"
       y1="480.9187"
       x2="578.17694"
       y2="480.9187" />
    <linearGradient
       id="linearGradient2250">
      <stop
         offset="0"
         style="stop-color: rgb(255, 255, 255); stop-opacity: 1;"
         id="stop2252" />
      <stop
         offset="0.01531515"
         style="stop-color:   rgb(81,  5,    5   );  stop-opacity:  0.686636;"
         id="stop3243" />
      <stop
         offset="0.13956632"
         style="stop-color:   rgb(77,  11,   10  );  stop-opacity:  0.861751;"
         id="stop3241" />
      <stop
         offset="0.34356076"
         style="stop-color:   rgb(127, 0,    9   );  stop-opacity:  0.772549;"
         id="stop2264" />
      <stop
         offset="0.42254606"
         style="stop-color:   rgb(140, 0,    6   );  stop-opacity:  0.556863;"
         id="stop3247" />
      <stop
         offset="0.45062295"
         style="stop-color:   rgb(113, 0,    4   );  stop-opacity:  0.43318;"
         id="stop3245" />
      <stop
         offset="0.58819962"
         style="stop-color:   rgb(133, 0,    2   );  stop-opacity:  0.603687;"
         id="stop3249" />
      <stop
         offset="0.73600483"
         style="stop-color:   rgb(125, 0,    24  );  stop-opacity:  1;"
         id="stop3251" />
      <stop
         offset="0.85979915"
         style="stop-color:   rgb(123, 0,    0   )   ;              stop-opacity:  0.40553;"
         id="stop3253" />
      <stop
         offset="1"
         style="stop-color:   rgb(140, 0,    0   );  stop-opacity:  1;"
         id="stop2254" />
    </linearGradient>
    <linearGradient
       inkscape:collect="always"
       xlink:href="#linearGradient2250"
       id="linearGradient3109"
       gradientUnits="userSpaceOnUse"
       gradientTransform="matrix(-0.2716854,0,0,-0.93958,-616.79372,1824.8648)"
       x1="421.45929"
       y1="916.64789"
       x2="0"
       y2="916.64789" />
    <inkscape:perspective
       sodipodi:type="inkscape:persp3d"
       inkscape:vp_x="0 : 900 : 1"
       inkscape:vp_y="0 : 1000 : 0"
       inkscape:vp_z="1800 : 900 : 1"
       inkscape:persp3d-origin="900 : 600 : 1"
       id="perspective3012" />
    <linearGradient
       id="linearGradient4496">
      <stop
         style="stop-color: rgb(0, 0, 0); stop-opacity: 0;"
         offset="0"
         id="stop4498" />
      <stop
         style="stop-color: rgb(0, 0, 0); stop-opacity: 0.498039;"
         offset="1"
         id="stop4500" />
    </linearGradient>
    <linearGradient
       id="linearGradient127074">
      <stop
         style="stop-color: rgb(1, 1, 255); stop-opacity: 1;"
         offset="0"
         id="stop127076" />
      <stop
         style="stop-color: rgb(0, 0, 128); stop-opacity: 1;"
         offset="1"
         id="stop127078" />
    </linearGradient>
    <radialGradient
       cx="18025"
       cy="18125"
       r="17925"
       fx="18025"
       fy="18125"
       id="radialGradient127080"
       xlink:href="#linearGradient127074"
       gradientUnits="userSpaceOnUse"
       gradientTransform="matrix(1, 0, 0, 1.00279, 0, -50.5579)" />
    <radialGradient
       cx="19016.488"
       cy="17506.945"
       r="16567.549"
       fx="19016.488"
       fy="17506.945"
       id="radialGradient136374"
       xlink:href="#linearGradient127074"
       gradientUnits="userSpaceOnUse"
       gradientTransform="matrix(1, 0, 0, 1.05635, 0, -986.555)" />
    <radialGradient
       cx="17925.152"
       cy="19313.244"
       r="13293.86"
       fx="17925.152"
       fy="19313.244"
       id="radialGradient137289"
       xlink:href="#lineargrad1"
       gradientUnits="userSpaceOnUse"
       gradientTransform="matrix(1.14366,0,0,1.27734,-2575.2,-4834.42)" />
    <radialGradient
       cx="17999.998"
       cy="17999.996"
       r="17999.998"
       fx="17999.998"
       fy="17999.996"
       id="radialGradient4502"
       xlink:href="#linearGradient4496"
       gradientUnits="userSpaceOnUse"
       gradientTransform="translate(0, -0.005025)" />
    <radialGradient
       cx="17999.998"
       cy="17999.996"
       r="17999.998"
       fx="17999.998"
       fy="17999.996"
       id="radialGradient4511"
       xlink:href="#linearGradient4496"
       gradientUnits="userSpaceOnUse"
       gradientTransform="matrix(1.00139, 0.00695455, -0.00695436, 1.00137, 74.9659, -274.967)" />
  </defs>
  <linearGradient
     id="lineargrad1">
    <stop
       style="stop-color: rgb(128, 255, 128); stop-opacity: 1;"
       offset="0"
       id="stop1" />
    <stop
       style="stop-color: rgb(0, 255, 0); stop-opacity: 1;"
       offset="1"
       id="stop2" />
  </linearGradient>
  <radialGradient
     cx="18000"
     cy="18000"
     r="18000"
     fx="18000"
     fy="18000"
     id="grad1"
     xlink:href="#lineargrad1"
     gradientUnits="userSpaceOnUse"
     gradientTransform="scale(1)" />
  <rect
     style="opacity:1;fill:#ffffff;fill-opacity:1;stroke:none"
     id="rect2462"
     width="36000"
     height="35844.828"
     x="155.17241"
     y="0.00031034483" />
  <g
     style="display:inline"
     id="layer3"
     transform="translate(310.34482,775.86204)">
    <path
       d="M 9671.6079,14118.148 L 9419.8029,13964.356 L 9583.4653,14199.027 L 9670.7335,14119.757 L 9671.6079,14118.148 M 25877.521,7718.6682 L 25857.866,7791.6619 L 25946.622,7810.3133 L 25878.877,7719.1042 L 25877.521,7718.6682 M 12655.908,13495.956 L 12539.903,13526.258 L 12563.824,13622.913 L 12657.118,13497.387 L 12655.908,13495.956 M 9011.6798,12843.655 L 8854.3761,12848.045 L 9010.3524,12844.09 L 9011.6798,12843.655 M 35131.904,21678.066 L 35125.689,21617.271 L 35131.77,21678.333 L 35131.904,21678.066 M 35205.498,21886.988 L 35187.971,21878.56 L 35205.539,21887.079 L 35205.498,21886.988 M 9972.8076,7487.2692 L 9906.4641,7447.7726 L 9968.9511,7488.0674 L 9972.8076,7487.2692 M 33706.425,23153.712 L 33786.005,23046.061 L 33706.994,23152.35 L 33706.425,23153.712 M 9958.0854,7511.8263 L 9853.4485,7462.6752 L 9957.468,7511.756 L 9958.0854,7511.8263 M 25647.515,7724.8385 L 25578.383,7698.3922 L 25646.161,7724.8653 L 25647.515,7724.8385 M 35243.395,21300.837 L 35243.521,21300.702 L 35235.002,21266.101 L 35243.395,21300.837 M 30247.703,6587.8081 L 30251.021,6629.0175 L 30247.758,6587.9991 L 30247.703,6587.8081 M 11062.846,14873.397 L 10941.848,14909.784 L 11062.055,14874.957 L 11062.846,14873.397 M 13441.625,29756.339 L 13419.279,29683.642 L 13440.852,29755.243 L 13441.625,29756.339 M 11375.453,26552.855 L 11281.306,26535.675 L 11377.531,26553.466 L 11375.453,26552.855 M 14526.27,29786.671 L 14617.279,29837.554 L 14527.729,29787.311 L 14526.27,29786.671 M 35090.884,22139.38 L 35089.46,22191.785 L 35091.039,22138.717 L 35090.884,22139.38 M 30711.657,8220.9425 L 30769.778,8262.6625 L 30712.52,8221.0479 L 30711.657,8220.9425 M 8719.6524,10789.165 L 8719.4788,10789.235 L 8667.8011,10844.529 L 8719.6524,10789.165 M 9228.034,12737.554 L 9163.2548,12741.198 L 9226.7408,12739.308 L 9228.034,12737.554 M 30415.584,6776.0248 L 30381.019,6715.521 L 30414.725,6775.8494 L 30415.584,6776.0248 M 12774.297,34371.952 L 12803.768,34405.931 L 12775.526,34372.014 L 12774.297,34371.952 M 26154.505,7190.3483 L 26215.078,7236.0533 L 26154.866,7190.3713 L 26154.505,7190.3483 M 20011.695,967.02762 L 20011.518,967.04909 L 20001.889,989.51552 L 20011.695,967.02762 M 19773.797,464.31381 L 19703.394,456.24317 L 19774.191,464.76519 L 19773.797,464.31381"
       style="fill:url(#radialGradient137289);fill-opacity:1;stroke:none;stroke-width:12px"
       id="polygon413" />
  </g>
  <g
     transform="matrix(23.800808,0,0,23.800808,38574.573,-730.41168)"
     id="g3172">
    <path
       id="path3798"
       sodipodi:nodetypes="ccccsccccsc"
       d="M -616.79377,1341.0697 L -616.79377,738.50571 L -616.79377,736.77341 L -616.83624,736.77341 C -620.11526,706.01321 -632.19012,662.93511 -674.04279,660.13881 C -712.2463,657.58621 -730.08921,710.53171 -731.24934,736.77341 L -731.29179,736.77341 C -731.37523,736.71821 -731.29179,738.50571 -731.29179,738.50571 L -731.29179,1340.2182 C -729.24654,1359.7179 -700.56301,1401.3528 -671.73945,1401.3528 C -642.56347,1401.3527 -620.78794,1362.5299 -616.79377,1341.0697 z"
       style="fill:url(#linearGradient3109);fill-opacity:1;fill-rule:evenodd;stroke:url(#linearGradient3111);stroke-width:2.27358627;stroke-linecap:round;stroke-linejoin:round;stroke-miterlimit:4;stroke-dasharray:none;stroke-opacity:0.46753199" />
    <path
       id="path3166"
       sodipodi:nodetypes="ccccsccccsc"
       d="M -616.79377,1341.0697 L -616.79377,738.50573 L -616.79377,736.77343 L -616.83624,736.77343 C -620.11526,706.01323 -632.19012,662.93513 -674.04279,660.13883 C -712.2463,657.58623 -730.08921,710.53173 -731.24934,736.77343 L -731.29179,736.77343 C -731.37523,736.71823 -731.29179,738.50573 -731.29179,738.50573 L -731.29179,1340.2182 C -729.24654,1359.7179 -700.56301,1401.3527 -671.73944,1401.3527 C -642.56348,1401.3526 -620.78794,1362.5299 -616.79377,1341.0697 z"
       style="fill:url(#linearGradient3168);fill-opacity:1;fill-rule:evenodd;stroke:url(#linearGradient3170);stroke-width:2.27358627;stroke-linecap:round;stroke-linejoin:round;stroke-miterlimit:4;stroke-dasharray:none;stroke-opacity:0.46753199" />
  </g>
  <g
     id="g3143"
     transform="matrix(23.800808,0,0,28.084563,22434.202,-14038.021)">
    <path
       id="path3145"
       sodipodi:nodetypes="ccccsccccsc"
       d="M -616.79377,1341.0697 L -616.79377,738.50571 L -616.79377,736.77341 L -616.83624,736.77341 C -620.11526,706.01321 -632.19012,662.93511 -674.04279,660.13881 C -712.2463,657.58621 -730.08921,710.53171 -731.24934,736.77341 L -731.29179,736.77341 C -731.37523,736.71821 -731.29179,738.50571 -731.29179,738.50571 L -731.29179,1340.2182 C -729.24654,1359.7179 -700.56301,1401.3528 -671.73945,1401.3528 C -642.56347,1401.3527 -620.78794,1362.5299 -616.79377,1341.0697 z"
       style="fill:url(#linearGradient3167);fill-opacity:1;fill-rule:evenodd;stroke:url(#linearGradient3169);stroke-width:2.27358627;stroke-linecap:round;stroke-linejoin:round;stroke-miterlimit:4;stroke-dasharray:none;stroke-opacity:0.46753199" />
    <path
       id="path3147"
       sodipodi:nodetypes="ccccsccccsc"
       d="M -616.79377,1341.0697 L -616.79377,738.50573 L -616.79377,736.77343 L -616.83624,736.77343 C -620.11526,706.01323 -632.19012,662.93513 -674.04279,660.13883 C -712.2463,657.58623 -730.08921,710.53173 -731.24934,736.77343 L -731.29179,736.77343 C -731.37523,736.71823 -731.29179,738.50573 -731.29179,738.50573 L -731.29179,1340.2182 C -729.24654,1359.7179 -700.56301,1401.3527 -671.73944,1401.3527 C -642.56348,1401.3526 -620.78794,1362.5299 -616.79377,1341.0697 z"
       style="fill:url(#linearGradient3171);fill-opacity:1;fill-rule:evenodd;stroke:url(#linearGradient3173);stroke-width:2.27358627;stroke-linecap:round;stroke-linejoin:round;stroke-miterlimit:4;stroke-dasharray:none;stroke-opacity:0.46753199" />
  </g>
  <g
     id="g3551"
     transform="matrix(16.15534,0,0,23.800808,33189.524,-1016.0214)">
    <g
       transform="translate(-81.555705,734.94593)"
       id="g3114">
      <path
         style="fill:url(#linearGradient3557);fill-opacity:1;fill-rule:evenodd;stroke:url(#linearGradient3559);stroke-width:2.27358627;stroke-linecap:round;stroke-linejoin:round;stroke-miterlimit:4;stroke-dasharray:none;stroke-opacity:0.46753199"
         d="M 50.133773,679.16688 L 49.973413,677.27422 L 49.973413,677.23174 C 80.733613,673.95272 123.8117,661.87787 126.608,620.02519 C 129.1606,581.82168 76.215113,563.97878 49.973413,562.81864 L 49.973413,562.77619 C 50.028613,562.69275 48.241113,562.77619 48.241113,562.77619 L -514.6226,558.49305 C -513.49633,642.1094 -530.4098,661.75497 -559.39153,678.12357 L 50.133773,679.16688 z"
         sodipodi:nodetypes="cccscccccc"
         id="path3116" />
    </g>
    <g
       transform="translate(-81.555705,734.94593)"
       id="g3543">
      <path
         style="fill:url(#linearGradient3561);fill-opacity:1;fill-rule:evenodd;stroke:url(#linearGradient3563);stroke-width:2.27358627;stroke-linecap:round;stroke-linejoin:round;stroke-miterlimit:4;stroke-dasharray:none;stroke-opacity:0.46753199"
         d="M 50.133773,679.16688 L 49.973413,677.27422 L 49.973413,677.23174 C 80.733613,673.95272 123.8117,661.87787 126.608,620.02519 C 129.1606,581.82168 76.215113,563.97878 49.973413,562.81864 L 49.973413,562.77619 C 50.028613,562.69275 48.241113,562.77619 48.241113,562.77619 L -514.6226,558.49305 C -513.49633,642.1094 -530.4098,661.75497 -559.39153,678.12357 L 50.133773,679.16688 z"
         sodipodi:nodetypes="cccscccccc"
         id="path3545" />
    </g>
  </g>
  <g
     id="g3571"
     transform="matrix(23.800808,0,0,23.800808,36289.696,-1016.0214)">
    <path
       id="path2965"
       sodipodi:nodetypes="cccscccccc"
       d="M -66.278001,789.46345 L -68.400721,787.07298 L -68.400721,787.03049 C -43.190221,783.75147 -7.884201,771.67662 -5.592411,729.82394 C -3.500341,691.62043 -46.893501,673.77755 -68.400721,672.61739 L -68.400721,672.57495 C -68.355481,672.49151 -69.820481,672.57495 -69.820481,672.57495 L -570.44048,673.07277 C -551.31496,677.49777 -520.22822,695.84712 -521.01468,788.91796 L -66.278001,789.46345 z"
       style="fill:url(#linearGradient3575);fill-opacity:1;fill-rule:evenodd;stroke:url(#linearGradient3577);stroke-width:2.05829477;stroke-linecap:round;stroke-linejoin:round;stroke-miterlimit:4;stroke-dasharray:none;stroke-opacity:0.46753199" />
    <path
       id="path3565"
       sodipodi:nodetypes="cccscccccc"
       d="M -66.278002,789.46345 L -68.400722,787.07299 L -68.400722,787.0305 C -43.190222,783.75148 -7.884202,771.67663 -5.592412,729.82395 C -3.500342,691.62044 -46.893502,673.77755 -68.400722,672.6174 L -68.400722,672.57496 C -68.355482,672.49152 -69.820482,672.57496 -69.820482,672.57496 L -570.44048,673.07278 C -551.31496,677.49778 -520.22822,695.84712 -521.01468,788.91796 L -66.278002,789.46345 z"
       style="fill:url(#linearGradient3579);fill-opacity:1;fill-rule:evenodd;stroke:url(#linearGradient3581);stroke-width:2.05829477;stroke-linecap:round;stroke-linejoin:round;stroke-miterlimit:4;stroke-dasharray:none;stroke-opacity:0.46753199" />
  </g>
  <g
     id="g3583"
     transform="matrix(32.277473,0,0,23.800808,24646.419,-11550.535)">
    <path
       id="path3585"
       sodipodi:nodetypes="cccscccccc"
       d="M -66.278001,789.46345 L -68.400721,787.07298 L -68.400721,787.03049 C -43.190221,783.75147 -7.884201,771.67662 -5.592411,729.82394 C -3.500341,691.62043 -46.893501,673.77755 -68.400721,672.61739 L -68.400721,672.57495 C -68.355481,672.49151 -69.820481,672.57495 -69.820481,672.57495 L -570.44048,673.07277 C -551.31496,677.49777 -520.22822,695.84712 -521.01468,788.91796 L -66.278001,789.46345 z"
       style="fill:url(#linearGradient3589);fill-opacity:1;fill-rule:evenodd;stroke:url(#linearGradient3591);stroke-width:2.05829477;stroke-linecap:round;stroke-linejoin:round;stroke-miterlimit:4;stroke-dasharray:none;stroke-opacity:0.46753199" />
    <path
       id="path3587"
       sodipodi:nodetypes="cccscccccc"
       d="M -66.278002,789.46345 L -68.400722,787.07299 L -68.400722,787.0305 C -43.190222,783.75148 -7.884202,771.67663 -5.592412,729.82395 C -3.500342,691.62044 -46.893502,673.77755 -68.400722,672.6174 L -68.400722,672.57496 C -68.355482,672.49152 -69.820482,672.57496 -69.820482,672.57496 L -570.44048,673.07278 C -551.31496,677.49778 -520.22822,695.84712 -521.01468,788.91796 L -66.278002,789.46345 z"
       style="fill:url(#linearGradient3593);fill-opacity:1;fill-rule:evenodd;stroke:url(#linearGradient3595);stroke-width:2.05829477;stroke-linecap:round;stroke-linejoin:round;stroke-miterlimit:4;stroke-dasharray:none;stroke-opacity:0.46753199" />
  </g>
  <g
     id="g3631"
     transform="matrix(23.800808,0,0,23.800808,39574.207,-1349.2327)">
    <g
       transform="translate(-824.28643,444.08339)"
       id="g3599">
      <path
         style="fill:url(#linearGradient3637);fill-opacity:1;fill-rule:evenodd;stroke:url(#linearGradient3639);stroke-width:2.27358627;stroke-linecap:round;stroke-linejoin:round;stroke-miterlimit:4;stroke-dasharray:none;stroke-opacity:0.46753199"
         d="M 49.973413,677.27422 L 49.973413,677.23174 C 51.108168,564.58412 51.087233,676.70242 49.973413,562.81864 L -514.6226,558.49305 C -513.49633,642.1094 -530.4098,661.75497 -559.39153,678.12357 L 49.973413,677.27422 z"
         sodipodi:nodetypes="cccccc"
         id="path3601" />
    </g>
    <g
       transform="translate(-824.28643,444.08339)"
       id="g3623">
      <path
         style="fill:url(#linearGradient3641);fill-opacity:1;fill-rule:evenodd;stroke:url(#linearGradient3643);stroke-width:2.27358627;stroke-linecap:round;stroke-linejoin:round;stroke-miterlimit:4;stroke-dasharray:none;stroke-opacity:0.46753199"
         d="M 49.973413,677.27422 L 49.973413,677.23174 C 51.108168,564.58412 51.087233,676.70242 49.973413,562.81864 L -514.6226,558.49305 C -513.49633,642.1094 -530.4098,661.75497 -559.39153,678.12357 L 49.973413,677.27422 z"
         sodipodi:nodetypes="cccccc"
         id="path3625" />
    </g>
  </g>
  <g
     id="g3675"
     transform="matrix(9.1450893,0,0,23.800808,22051.141,-1551.6967)">
    <path
       id="path3647"
       sodipodi:nodetypes="cccscccccc"
       d="M -2323.6766,765.30678 L -2321.5539,762.91631 L -2321.5539,762.87382 C -2346.7644,759.5948 -2382.0704,747.51995 -2384.3622,705.66727 C -2386.4543,667.46376 -2343.0611,649.62088 -2321.5539,648.46072 L -2321.5539,648.41828 C -2321.5991,648.33484 -2320.1341,648.41828 -2320.1341,648.41828 L -1862.3499,645.94139 C -1862.4373,764.59519 -1862.5871,672.28539 -1861.8006,765.35623 L -2323.6766,765.30678 z"
       style="fill:url(#linearGradient3679);fill-opacity:1;fill-rule:evenodd;stroke:url(#linearGradient3681);stroke-width:2.05829477;stroke-linecap:round;stroke-linejoin:round;stroke-miterlimit:4;stroke-dasharray:none;stroke-opacity:0.46753199" />
    <path
       id="path3669"
       sodipodi:nodetypes="cccscccccc"
       d="M -2323.6766,765.30678 L -2321.5539,762.91631 L -2321.5539,762.87382 C -2346.7644,759.5948 -2382.0704,747.51995 -2384.3622,705.66727 C -2386.4543,667.46376 -2343.0611,649.62088 -2321.5539,648.46072 L -2321.5539,648.41828 C -2321.5991,648.33484 -2320.1341,648.41828 -2320.1341,648.41828 L -1862.3499,645.94139 C -1862.4373,764.59519 -1862.5871,672.28539 -1861.8006,765.35623 L -2323.6766,765.30678 z"
       style="fill:url(#linearGradient3683);fill-opacity:1;fill-rule:evenodd;stroke:url(#linearGradient3685);stroke-width:2.05829477;stroke-linecap:round;stroke-linejoin:round;stroke-miterlimit:4;stroke-dasharray:none;stroke-opacity:0.46753199" />
  </g>
</svg>
