<?xml version="1.0" encoding="UTF-8" standalone="no"?>
<!-- Created with Inkscape (http://www.inkscape.org/) -->

<svg
   xmlns:dc="http://purl.org/dc/elements/1.1/"
   xmlns:cc="http://creativecommons.org/ns#"
   xmlns:rdf="http://www.w3.org/1999/02/22-rdf-syntax-ns#"
   xmlns:svg="http://www.w3.org/2000/svg"
   xmlns="http://www.w3.org/2000/svg"
   xmlns:xlink="http://www.w3.org/1999/xlink"
   xmlns:sodipodi="http://sodipodi.sourceforge.net/DTD/sodipodi-0.dtd"
   xmlns:inkscape="http://www.inkscape.org/namespaces/inkscape"
   version="1.0"
   width="67.470001"
   height="67.470001"
   id="svg2"
   sodipodi:version="0.32"
   inkscape:version="0.48.3.1 r9886"
   sodipodi:docname="tree_speech.svg"
   inkscape:output_extension="org.inkscape.output.svg.inkscape"
   inkscape:export-filename="/home/matsen/wo/phylosem/webpage/logo/tree_speech.png"
   inkscape:export-xdpi="266.78525"
   inkscape:export-ydpi="266.78525">
  <metadata
     id="metadata8">
    <rdf:RDF>
      <cc:Work
         rdf:about="">
        <dc:format>image/svg+xml</dc:format>
        <dc:type
           rdf:resource="http://purl.org/dc/dcmitype/StillImage" />
        <dc:title></dc:title>
      </cc:Work>
    </rdf:RDF>
  </metadata>
  <sodipodi:namedview
     inkscape:window-height="747"
     inkscape:window-width="1278"
     inkscape:pageshadow="2"
     inkscape:pageopacity="0.0"
     guidetolerance="10.0"
     gridtolerance="10.0"
     objecttolerance="10.0"
     borderopacity="1.0"
     bordercolor="#666666"
     pagecolor="#ffffff"
     id="base"
     showgrid="false"
     inkscape:zoom="3.9392423"
     inkscape:cx="10.904192"
     inkscape:cy="20.852566"
     inkscape:window-x="0"
     inkscape:window-y="24"
     inkscape:current-layer="svg2"
     fit-margin-top="0"
     fit-margin-left="0"
     fit-margin-right="0"
     fit-margin-bottom="0"
     inkscape:window-maximized="0" />
  <defs
     id="defs4">
    <linearGradient
       inkscape:collect="always"
       xlink:href="#linearGradient2250"
       id="linearGradient4478"
       gradientUnits="userSpaceOnUse"
       gradientTransform="matrix(0,-0.260577,-0.8195817,0,-1711.2073,798.46048)"
       x1="134.1788"
       y1="480.9187"
       x2="578.17694"
       y2="480.9187" />
    <linearGradient
       inkscape:collect="always"
       xlink:href="#linearGradient2250"
       id="linearGradient4476"
       gradientUnits="userSpaceOnUse"
       gradientTransform="matrix(0,-0.2716854,-0.7700626,0,-1429.7741,762.91635)"
       x1="421.45929"
       y1="916.64789"
       x2="0"
       y2="916.64789" />
    <linearGradient
       inkscape:collect="always"
       xlink:href="#linearGradient2250"
       id="linearGradient4474"
       gradientUnits="userSpaceOnUse"
       gradientTransform="matrix(0,-0.260577,-0.8195817,0,-1711.2073,798.46048)"
       x1="134.1788"
       y1="480.9187"
       x2="578.17694"
       y2="480.9187" />
    <linearGradient
       inkscape:collect="always"
       xlink:href="#linearGradient2250"
       id="linearGradient4472"
       gradientUnits="userSpaceOnUse"
       gradientTransform="matrix(0,-0.2716854,-0.7700626,0,-1429.7741,762.91635)"
       x1="421.45929"
       y1="916.64789"
       x2="0"
       y2="916.64789" />
    <linearGradient
       inkscape:collect="always"
       xlink:href="#linearGradient2250"
       id="linearGradient4470"
       gradientUnits="userSpaceOnUse"
       gradientTransform="matrix(0,-0.260577,1,0,-694.73162,712.8184)"
       x1="134.1788"
       y1="480.9187"
       x2="578.17694"
       y2="480.9187" />
    <linearGradient
       inkscape:collect="always"
       xlink:href="#linearGradient2250"
       id="linearGradient4468"
       gradientUnits="userSpaceOnUse"
       gradientTransform="matrix(0,-0.2716854,0.93958,0,-1038.1179,677.27427)"
       x1="421.45929"
       y1="916.64789"
       x2="0"
       y2="916.64789" />
    <linearGradient
       inkscape:collect="always"
       xlink:href="#linearGradient2250"
       id="linearGradient4466"
       gradientUnits="userSpaceOnUse"
       gradientTransform="matrix(0,-0.260577,1,0,-694.73162,712.8184)"
       x1="134.1788"
       y1="480.9187"
       x2="578.17694"
       y2="480.9187" />
    <linearGradient
       inkscape:collect="always"
       xlink:href="#linearGradient2250"
       id="linearGradient4464"
       gradientUnits="userSpaceOnUse"
       gradientTransform="matrix(0,-0.2716854,0.93958,0,-1038.1179,677.27427)"
       x1="421.45929"
       y1="916.64789"
       x2="0"
       y2="916.64789" />
    <linearGradient
       inkscape:collect="always"
       xlink:href="#linearGradient2250"
       id="linearGradient4462"
       gradientUnits="userSpaceOnUse"
       gradientTransform="matrix(0,-0.260577,0.8195817,0,-678.74735,822.61716)"
       x1="134.1788"
       y1="480.9187"
       x2="578.17694"
       y2="480.9187" />
    <linearGradient
       inkscape:collect="always"
       xlink:href="#linearGradient2250"
       id="linearGradient4460"
       gradientUnits="userSpaceOnUse"
       gradientTransform="matrix(0,-0.2716854,0.7700626,0,-960.1805,787.07303)"
       x1="421.45929"
       y1="916.64789"
       x2="0"
       y2="916.64789" />
    <linearGradient
       inkscape:collect="always"
       xlink:href="#linearGradient2250"
       id="linearGradient4458"
       gradientUnits="userSpaceOnUse"
       gradientTransform="matrix(0,-0.260577,0.8195817,0,-678.74735,822.61715)"
       x1="134.1788"
       y1="480.9187"
       x2="578.17694"
       y2="480.9187" />
    <linearGradient
       inkscape:collect="always"
       xlink:href="#linearGradient2250"
       id="linearGradient4456"
       gradientUnits="userSpaceOnUse"
       gradientTransform="matrix(0,-0.2716854,0.7700626,0,-960.1805,787.07302)"
       x1="421.45929"
       y1="916.64789"
       x2="0"
       y2="916.64789" />
    <linearGradient
       inkscape:collect="always"
       xlink:href="#linearGradient2250"
       id="linearGradient4454"
       gradientUnits="userSpaceOnUse"
       gradientTransform="matrix(0,-0.260577,0.8195817,0,-678.74735,822.61716)"
       x1="134.1788"
       y1="480.9187"
       x2="578.17694"
       y2="480.9187" />
    <linearGradient
       inkscape:collect="always"
       xlink:href="#linearGradient2250"
       id="linearGradient4452"
       gradientUnits="userSpaceOnUse"
       gradientTransform="matrix(0,-0.2716854,0.7700626,0,-960.1805,787.07303)"
       x1="421.45929"
       y1="916.64789"
       x2="0"
       y2="916.64789" />
    <linearGradient
       inkscape:collect="always"
       xlink:href="#linearGradient2250"
       id="linearGradient4450"
       gradientUnits="userSpaceOnUse"
       gradientTransform="matrix(0,-0.260577,0.8195817,0,-678.74735,822.61715)"
       x1="134.1788"
       y1="480.9187"
       x2="578.17694"
       y2="480.9187" />
    <linearGradient
       inkscape:collect="always"
       xlink:href="#linearGradient2250"
       id="linearGradient4448"
       gradientUnits="userSpaceOnUse"
       gradientTransform="matrix(0,-0.2716854,0.7700626,0,-960.1805,787.07302)"
       x1="421.45929"
       y1="916.64789"
       x2="0"
       y2="916.64789" />
    <linearGradient
       inkscape:collect="always"
       xlink:href="#linearGradient2250"
       id="linearGradient4446"
       gradientUnits="userSpaceOnUse"
       gradientTransform="matrix(0,-0.260577,1,0,-694.73162,712.8184)"
       x1="134.1788"
       y1="480.9187"
       x2="578.17694"
       y2="480.9187" />
    <linearGradient
       inkscape:collect="always"
       xlink:href="#linearGradient2250"
       id="linearGradient4444"
       gradientUnits="userSpaceOnUse"
       gradientTransform="matrix(0,-0.2716854,0.93958,0,-1038.1179,677.27427)"
       x1="421.45929"
       y1="916.64789"
       x2="0"
       y2="916.64789" />
    <linearGradient
       inkscape:collect="always"
       xlink:href="#linearGradient2250"
       id="linearGradient4442"
       gradientUnits="userSpaceOnUse"
       gradientTransform="matrix(0,-0.260577,1,0,-694.73162,712.8184)"
       x1="134.1788"
       y1="480.9187"
       x2="578.17694"
       y2="480.9187" />
    <linearGradient
       inkscape:collect="always"
       xlink:href="#linearGradient2250"
       id="linearGradient4440"
       gradientUnits="userSpaceOnUse"
       gradientTransform="matrix(0,-0.2716854,0.93958,0,-1038.1179,677.27427)"
       x1="421.45929"
       y1="916.64789"
       x2="0"
       y2="916.64789" />
    <linearGradient
       inkscape:collect="always"
       xlink:href="#linearGradient2250"
       id="linearGradient4438"
       gradientUnits="userSpaceOnUse"
       gradientTransform="matrix(-0.260577,0,0,-1,-581.24959,1481.4784)"
       x1="134.1788"
       y1="480.9187"
       x2="578.17694"
       y2="480.9187" />
    <linearGradient
       inkscape:collect="always"
       xlink:href="#linearGradient2250"
       id="linearGradient4436"
       gradientUnits="userSpaceOnUse"
       gradientTransform="matrix(-0.2716854,0,0,-0.93958,-616.79372,1824.8647)"
       x1="421.45929"
       y1="916.64789"
       x2="0"
       y2="916.64789" />
    <linearGradient
       inkscape:collect="always"
       xlink:href="#linearGradient2250"
       id="linearGradient4434"
       gradientUnits="userSpaceOnUse"
       gradientTransform="matrix(-0.260577,0,0,-1,-581.24959,1481.4784)"
       x1="134.1788"
       y1="480.9187"
       x2="578.17694"
       y2="480.9187" />
    <linearGradient
       inkscape:collect="always"
       xlink:href="#linearGradient2250"
       id="linearGradient4432"
       gradientUnits="userSpaceOnUse"
       gradientTransform="matrix(-0.2716854,0,0,-0.93958,-616.79372,1824.8648)"
       x1="421.45929"
       y1="916.64789"
       x2="0"
       y2="916.64789" />
    <linearGradient
       inkscape:collect="always"
       xlink:href="#linearGradient2250"
       id="linearGradient4430"
       gradientUnits="userSpaceOnUse"
       gradientTransform="matrix(-0.260577,0,0,-1,-581.24959,1481.4784)"
       x1="134.1788"
       y1="480.9187"
       x2="578.17694"
       y2="480.9187" />
    <linearGradient
       inkscape:collect="always"
       xlink:href="#linearGradient2250"
       id="linearGradient4428"
       gradientUnits="userSpaceOnUse"
       gradientTransform="matrix(-0.2716854,0,0,-0.93958,-616.79372,1824.8647)"
       x1="421.45929"
       y1="916.64789"
       x2="0"
       y2="916.64789" />
    <linearGradient
       inkscape:collect="always"
       xlink:href="#linearGradient2250"
       id="linearGradient4426"
       gradientUnits="userSpaceOnUse"
       gradientTransform="matrix(-0.260577,0,0,-1,-581.24959,1481.4784)"
       x1="134.1788"
       y1="480.9187"
       x2="578.17694"
       y2="480.9187" />
    <linearGradient
       id="linearGradient2250">
      <stop
         offset="0"
         style="stop-color: rgb(255, 255, 255); stop-opacity: 1;"
         id="stop2252" />
      <stop
         offset="0.01531515"
         style="stop-color:   rgb(81,  5,    5   );  stop-opacity:  0.686636;"
         id="stop3243" />
      <stop
         offset="0.13956632"
         style="stop-color:   rgb(77,  11,   10  );  stop-opacity:  0.861751;"
         id="stop3241" />
      <stop
         offset="0.34356076"
         style="stop-color:   rgb(127, 0,    9   );  stop-opacity:  0.772549;"
         id="stop2264" />
      <stop
         offset="0.42254606"
         style="stop-color:   rgb(140, 0,    6   );  stop-opacity:  0.556863;"
         id="stop3247" />
      <stop
         offset="0.45062295"
         style="stop-color:   rgb(113, 0,    4   );  stop-opacity:  0.43318;"
         id="stop3245" />
      <stop
         offset="0.58819962"
         style="stop-color:   rgb(133, 0,    2   );  stop-opacity:  0.603687;"
         id="stop3249" />
      <stop
         offset="0.73600483"
         style="stop-color:   rgb(125, 0,    24  );  stop-opacity:  1;"
         id="stop3251" />
      <stop
         offset="0.85979915"
         style="stop-color:   rgb(123, 0,    0   )   ;              stop-opacity:  0.40553;"
         id="stop3253" />
      <stop
         offset="1"
         style="stop-color:   rgb(140, 0,    0   );  stop-opacity:  1;"
         id="stop2254" />
    </linearGradient>
    <linearGradient
       inkscape:collect="always"
       xlink:href="#linearGradient2250"
       id="linearGradient4424"
       gradientUnits="userSpaceOnUse"
       gradientTransform="matrix(-0.2716854,0,0,-0.93958,-616.79372,1824.8648)"
       x1="421.45929"
       y1="916.64789"
       x2="0"
       y2="916.64789" />
    <inkscape:perspective
       sodipodi:type="inkscape:persp3d"
       inkscape:vp_x="0 : 19.355469 : 1"
       inkscape:vp_y="0 : 1000 : 0"
       inkscape:vp_z="273.04688 : 19.355469 : 1"
       inkscape:persp3d-origin="136.52344 : 12.903646 : 1"
       id="perspective10" />
  </defs>
  <g
     transform="matrix(0.7873055,0,0,0.7873055,0,8.655719)"
     id="g3">
    <path
       d="m 45.673,0 c 22.108,0 40.03,12.475 40.03,27.862 0,15.387 -17.922,27.862 -40.03,27.862 -6.931,0 -13.449,-1.227 -19.134,-3.384 C 15.319,56.564 0,64.542 0,64.542 c 0,0 9.989,-5.655 14.107,-12.521 1.052,-1.755 1.668,-3.595 2.021,-5.362 C 9.618,41.704 5.643,35.106 5.643,27.862 5.643,12.475 23.565,0 45.673,0 m 0,2.22 c -20.849,0 -37.811,11.503 -37.811,25.643 0,6.266 3.413,12.314 9.61,17.03 l 1.104,0.841 -0.271,1.36 c -0.445,2.23 -1.217,4.272 -2.294,6.069 -0.341,0.567 -0.717,1.127 -1.12,1.674 3.625,-1.646 7.421,-3.276 10.866,-4.573 l 0.785,-0.296 0.785,0.298 c 5.584,2.119 11.928,3.239 18.346,3.239 20.849,0 37.811,-11.503 37.811,-25.643 C 83.484,13.722 66.522,2.22 45.673,2.22 l 0,0 z"
       id="path5"
       inkscape:connector-curvature="0" />
  </g>
  <path
     style="fill:#860005;fill-opacity:1;fill-rule:evenodd;stroke:none"
     d="m 35.4261,44.138013 0,-13.736956 0,-0.03949 -9.7e-4,0 c -0.0747,-0.701256 -0.35003,-1.683329 -1.30416,-1.747078 -0.87095,-0.05819 -1.27772,1.148833 -1.30417,1.747078 l -9.7e-4,0 c -0.002,-0.0013 0,0.03949 0,0.03949 l 0,13.717544 c 0.0466,0.444545 0.70054,1.393717 1.35765,1.393717 0.66514,-3e-6 1.16156,-0.885066 1.25262,-1.374305 z"
     sodipodi:nodetypes="ccccsccccsc"
     id="path3798"
     inkscape:connector-curvature="0" />
  <path
     style="fill:#860005;fill-opacity:1;fill-rule:evenodd;stroke:none"
     d="m 19.96611,36.894035 0,-16.209389 0,-0.0466 -9.7e-4,0 c -0.0747,-0.827471 -0.35003,-1.986302 -1.30416,-2.061524 -0.87095,-0.06867 -1.27772,1.355604 -1.30417,2.061524 l -9.7e-4,0 c -0.002,-0.0015 0,0.0466 0,0.0466 l 0,16.186483 c 0.0466,0.524556 0.70054,1.644564 1.35765,1.644564 0.66514,-3e-6 1.16156,-1.044363 1.25262,-1.621658 z"
     sodipodi:nodetypes="ccccsccccsc"
     id="path3145"
     inkscape:connector-curvature="0" />
  <path
     style="fill:#860005;fill-opacity:1;fill-rule:evenodd;stroke:none"
     d="m 43.84319,45.529644 -0.002,-0.04315 0,-9.68e-4 c 0.476,-0.07475 1.1426,-0.35003 1.18587,-1.304167 0.0395,-0.870945 -0.77979,-1.277718 -1.18587,-1.304167 l 0,-9.67e-4 c 8.6e-4,-0.0019 -0.0268,0 -0.0268,0 l -8.70994,-0.09764 c 0.0174,1.906244 -0.24429,2.354114 -0.69276,2.727277 l 9.43199,0.02379 z"
     sodipodi:nodetypes="cccscccccc"
     id="path3116"
     inkscape:connector-curvature="0" />
  <path
     style="fill:#860005;fill-opacity:1;fill-rule:evenodd;stroke:none"
     d="m 45.78793,31.289196 -0.0484,-0.0545 0,-9.69e-4 c 0.57474,-0.07475 1.37963,-0.35003 1.43188,-1.304167 0.0477,-0.870944 -0.94156,-1.277718 -1.43188,-1.304166 l 0,-9.68e-4 c 10e-4,-0.0019 -0.0324,0 -0.0324,0 l -11.41289,0.01135 c 0.43601,0.100879 1.14471,0.519199 1.12678,2.640982 l 10.36687,0.01243 z"
     sodipodi:nodetypes="cccscccccc"
     id="path2965"
     inkscape:connector-curvature="0" />
  <path
     style="fill:#860005;fill-opacity:1;fill-rule:evenodd;stroke:none"
     d="m 34.09733,21.198757 -0.0656,-0.0545 0,-9.69e-4 c 0.77943,-0.07475 1.87099,-0.35003 1.94184,-1.304167 0.0647,-0.870944 -1.2769,-1.277718 -1.94184,-1.304166 l 0,-9.68e-4 c 10e-4,-0.0019 -0.0439,0 -0.0439,0 l -15.4776,0.01135 c 0.5913,0.100879 1.55241,0.519199 1.52809,2.640982 l 14.05903,0.01244 z"
     sodipodi:nodetypes="cccscccccc"
     id="path3585"
     inkscape:connector-curvature="0" />
  <path
     style="fill:#860005;fill-opacity:1;fill-rule:evenodd;stroke:none"
     d="m 32.79256,38.536391 0,-9.68e-4 c 0.0259,-2.568085 0.0254,-0.01207 0,-2.608334 l -12.87138,-0.09861 c 0.0257,1.906244 -0.35991,2.354114 -1.02062,2.727277 l 13.892,-0.01936 z"
     sodipodi:nodetypes="cccccc"
     id="path3601"
     inkscape:connector-curvature="0" />
  <path
     style="fill:#860005;fill-opacity:1;fill-rule:evenodd;stroke:none"
     d="m 13.30611,30.22539 0.0186,-0.0545 0,-9.69e-4 c -0.22083,-0.07475 -0.5301,-0.35003 -0.55018,-1.304167 -0.0183,-0.870944 0.36178,-1.277718 0.55018,-1.304166 l 0,-9.68e-4 c -4e-4,-0.0019 0.0124,0 0.0124,0 l 4.01,-0.05647 c -7.7e-4,2.705011 -0.002,0.600578 0.005,2.722361 l -4.04584,-0.0011 z"
     sodipodi:nodetypes="cccscccccc"
     id="path3647"
     inkscape:connector-curvature="0" />
  <text
     xml:space="preserve"
     style="font-size:27.36063194px;font-style:normal;font-variant:normal;font-weight:normal;font-stretch:normal;text-align:start;line-height:100%;writing-mode:lr-tb;text-anchor:start;fill:#000000;fill-opacity:1;stroke:none;font-family:Bitstream Charter;-inkscape-font-specification:Bitstream Charter"
     x="49.989952"
     y="39.309124"
     id="text4393"
     sodipodi:linespacing="100%"><tspan
       sodipodi:role="line"
       id="tspan4395"
       x="49.989952"
       y="39.309124"
       style="font-size:27.36063194px;font-style:normal;font-variant:normal;font-weight:normal;font-stretch:normal;text-align:start;line-height:100%;writing-mode:lr-tb;text-anchor:start;font-family:Bitstream Charter;-inkscape-font-specification:Bitstream Charter">!</tspan></text>
</svg>
